<svg width="14" height="14" viewBox="0 0 14 14" fill="none" xmlns="http://www.w3.org/2000/svg">
<path d="M5.39966 8.9696H10.8125C11.1272 8.9696 11.3823 8.7145 11.3823 8.39982V2.41719C11.3823 2.10251 11.1272 1.84741 10.8125 1.84741H5.39966V8.9696Z" fill="#037C7F"/>
<path d="M4.82991 1.84741H4.54502C3.60098 1.84741 2.83569 2.6127 2.83569 3.55674V10.6789C2.83569 9.73489 3.60098 8.9696 4.54502 8.9696H4.82991V1.84741Z" fill="#037C7F"/>
<path fill-rule="evenodd" clip-rule="evenodd" d="M2.40833 3.5567C2.40833 2.37666 3.36494 1.42004 4.54498 1.42004H10.8125C11.3632 1.42004 11.8096 1.86646 11.8096 2.41715V8.39979C11.8096 8.95047 11.3632 9.39689 10.8125 9.39689H4.54498C3.83696 9.39689 3.26299 9.97086 3.26299 10.6789C3.26299 11.3869 3.83696 11.9609 4.54498 11.9609H11.3823C11.6183 11.9609 11.8096 12.1522 11.8096 12.3882C11.8096 12.6242 11.6183 12.8155 11.3823 12.8155H4.54498C3.36494 12.8155 2.40833 11.8589 2.40833 10.6789V3.5567ZM3.26299 8.9694C3.62009 8.70117 4.06397 8.54223 4.54498 8.54223H10.8125C10.8912 8.54223 10.9549 8.47846 10.9549 8.39979V2.41715C10.9549 2.33848 10.8912 2.27471 10.8125 2.27471H4.54498C3.83696 2.27471 3.26299 2.84867 3.26299 3.5567V8.9694Z" fill="#037C7F"/>
<path fill-rule="evenodd" clip-rule="evenodd" d="M10.6701 8.54224C10.9061 8.54224 11.0975 8.73356 11.0975 8.96957V12.3882C11.0975 12.6242 10.9061 12.8155 10.6701 12.8155C10.4341 12.8155 10.2428 12.6242 10.2428 12.3882V8.96957C10.2428 8.73356 10.4341 8.54224 10.6701 8.54224Z" fill="#037C7F"/>
</svg>
