<svg width="14" height="15" viewBox="0 0 14 15" fill="none" xmlns="http://www.w3.org/2000/svg">
<path fill-rule="evenodd" clip-rule="evenodd" d="M7.10904 2.28931C4.19827 2.28931 1.83862 4.64895 1.83862 7.55972V10.551C1.83862 11.8098 2.85901 12.8301 4.11772 12.8301H10.1004C11.3591 12.8301 12.3795 11.8098 12.3795 10.551V7.55972C12.3795 4.64895 10.0198 2.28931 7.10904 2.28931ZM7.10904 12.1179C9.62646 12.1179 11.6672 10.0771 11.6672 7.55972C11.6672 5.0423 9.62646 3.00153 7.10904 3.00153C4.59162 3.00153 2.55084 5.0423 2.55084 7.55972C2.55084 10.0771 4.59162 12.1179 7.10904 12.1179Z" fill="#037C7F"/>
<path fill-rule="evenodd" clip-rule="evenodd" d="M7.10903 11.5481C9.31178 11.5481 11.0975 9.76246 11.0975 7.55971C11.0975 5.35697 9.31178 3.57129 7.10903 3.57129C4.90628 3.57129 3.12061 5.35697 3.12061 7.55971C3.12061 9.76246 4.90628 11.5481 7.10903 11.5481ZM7.53636 5.28061C7.53636 5.04461 7.34504 4.85328 7.10903 4.85328C6.87302 4.85328 6.6817 5.04461 6.6817 5.28061V7.55971C6.6817 7.67305 6.72672 7.78174 6.80686 7.86188L7.94641 9.00143C8.11329 9.16831 8.38386 9.16831 8.55075 9.00143C8.71763 8.83455 8.71763 8.56398 8.55075 8.39709L7.53636 7.38271V5.28061Z" fill="#037C7F"/>
</svg>
