<svg width="14" height="14" viewBox="0 0 14 14" fill="none" xmlns="http://www.w3.org/2000/svg">
<path fill-rule="evenodd" clip-rule="evenodd" d="M5.54209 1.73108C4.59805 1.73108 3.83276 2.49637 3.83276 3.4404V11.2748H10.3852V3.4404C10.3852 2.49637 9.61988 1.73108 8.67585 1.73108H5.54209ZM8.39096 6.28928C7.99762 6.28928 7.67874 6.60815 7.67874 7.0015C7.67874 7.39484 7.99762 7.71372 8.39096 7.71372C8.78431 7.71372 9.10318 7.39484 9.10318 7.0015C9.10318 6.60815 8.78431 6.28928 8.39096 6.28928Z" fill="#037C7F"/>
<path fill-rule="evenodd" clip-rule="evenodd" d="M2.26599 12.2719C2.26599 12.0359 2.45731 11.8446 2.69332 11.8446H11.5248C11.7608 11.8446 11.9522 12.0359 11.9522 12.2719C11.9522 12.5079 11.7608 12.6993 11.5248 12.6993H2.69332C2.45731 12.6993 2.26599 12.5079 2.26599 12.2719Z" fill="#037C7F"/>
</svg>
